/* XPM */
static char * C:\Users\hezha\Pictures\emacs_xpm[] = {
"36 36 491 2",
"  	c None",
". 	c #55277E",
"+ 	c #5B2B85",
"@ 	c #5D2E89",
"# 	c #5D3089",
"$ 	c #5D2F88",
"% 	c #5B2D86",
"& 	c #592A81",
"* 	c #522779",
"= 	c #5A2A84",
"- 	c #5A2984",
"; 	c #6A4A9D",
"> 	c #7C73BA",
", 	c #8380C4",
"' 	c #8380C5",
") 	c #8381C5",
"! 	c #827FC4",
"~ 	c #827DC3",
"{ 	c #817BC2",
"] 	c #7A6EB7",
"^ 	c #674697",
"/ 	c #56277D",
"( 	c #55287C",
"_ 	c #582881",
": 	c #60348C",
"< 	c #7C71B9",
"[ 	c #8280C4",
"} 	c #8482C6",
"| 	c #817AC0",
"1 	c #8079C0",
"2 	c #8078C0",
"3 	c #7E74BD",
"4 	c #7665B0",
"5 	c #593082",
"6 	c #522577",
"7 	c #5B2B86",
"8 	c #7563AF",
"9 	c #8585C8",
"0 	c #827DC2",
"a 	c #817BC1",
"b 	c #8077C0",
"c 	c #7F76BF",
"d 	c #7F74BD",
"e 	c #7E73BC",
"f 	c #7D72BC",
"g 	c #7F73BD",
"h 	c #6E55A3",
"i 	c #532879",
"j 	c #522778",
"k 	c #61378E",
"l 	c #817CC2",
"m 	c #827EC3",
"n 	c #807AC1",
"o 	c #7D76BE",
"p 	c #7C73BD",
"q 	c #8A82C3",
"r 	c #9288C7",
"s 	c #8378BF",
"t 	c #7B6DB9",
"u 	c #7D6FBA",
"v 	c #7C6DB9",
"w 	c #7C6CB8",
"x 	c #7966B3",
"y 	c #583080",
"z 	c #49246B",
"A 	c #512678",
"B 	c #61368E",
"C 	c #827CC2",
"D 	c #8982C5",
"E 	c #9790CB",
"F 	c #CCC8E5",
"G 	c #FFFFFF",
"H 	c #C2BBDE",
"I 	c #7C6CB9",
"J 	c #7C6BB8",
"K 	c #7B69B6",
"L 	c #7B67B5",
"M 	c #7A66B5",
"N 	c #562E7D",
"O 	c #472269",
"P 	c #60348D",
"Q 	c #9F99CF",
"R 	c #A39CD0",
"S 	c #A39DD1",
"T 	c #A59ED0",
"U 	c #AFA7D6",
"V 	c #CECAE5",
"W 	c #BEB5DC",
"X 	c #7A67B6",
"Y 	c #7A66B4",
"Z 	c #7964B4",
"` 	c #7962B3",
" .	c #542C7B",
"..	c #5C2C86",
"+.	c #817CC1",
"@.	c #817AC1",
"#.	c #7E75BE",
"$.	c #7B71BB",
"%.	c #796DBA",
"&.	c #7669B8",
"*.	c #7566B6",
"=.	c #9B90CA",
"-.	c #F9F8FC",
";.	c #FAFAFC",
">.	c #7A65B4",
",.	c #7963B4",
"'.	c #7861B3",
").	c #7860B1",
"!.	c #765CAE",
"~.	c #4F2572",
"{.	c #572680",
"].	c #7461AD",
"^.	c #7D79C0",
"/.	c #9F9BD0",
"(.	c #B2AED9",
"_.	c #BCB9DE",
":.	c #C4C0E2",
"<.	c #CDC9E6",
"[.	c #D9D5EB",
"}.	c #E6E4F2",
"|.	c #F5F4FA",
"1.	c #EAE7F4",
"2.	c #7962B4",
"3.	c #7861B2",
"4.	c #785FB1",
"5.	c #775EB1",
"6.	c #775CB0",
"7.	c #664697",
"8.	c #4A226B",
"9.	c #60358D",
"0.	c #8586C8",
"a.	c #918DCA",
"b.	c #FBFAFD",
"c.	c #F9F7FB",
"d.	c #F4F3F9",
"e.	c #DED9ED",
"f.	c #7860B2",
"g.	c #765BAF",
"h.	c #765AAE",
"i.	c #785BB0",
"j.	c #512A76",
"k.	c #592983",
"l.	c #7B6EB7",
"m.	c #BCB8DD",
"n.	c #FEFEFF",
"o.	c #F7F6FB",
"p.	c #CEC8E4",
"q.	c #A499CE",
"r.	c #8372BC",
"s.	c #7664B4",
"t.	c #7763B4",
"u.	c #7662B3",
"v.	c #7660B2",
"w.	c #785FB2",
"x.	c #775EB0",
"y.	c #7659AE",
"z.	c #7557AD",
"A.	c #7455AB",
"B.	c #6B4A9D",
"C.	c #4A236B",
"D.	c #5A2783",
"E.	c #8880C3",
"F.	c #A9A1D2",
"G.	c #7D6FB9",
"H.	c #7B6AB7",
"I.	c #7A67B5",
"J.	c #7A65B5",
"K.	c #7963B3",
"L.	c #775DB0",
"M.	c #7558AD",
"N.	c #7556AC",
"O.	c #7454AA",
"P.	c #7251A8",
"Q.	c #492269",
"R.	c #694A9B",
"S.	c #8077BF",
"T.	c #7E74BE",
"U.	c #8F85C6",
"V.	c #D8D3EA",
"W.	c #7462B3",
"X.	c #7B69B7",
"Y.	c #7B68B6",
"Z.	c #7862B2",
"`.	c #7454AB",
" +	c #7353A9",
".+	c #7351A9",
"++	c #7350A9",
"@+	c #583280",
"#+	c #55277D",
"$+	c #7B70B9",
"%+	c #8078BF",
"&+	c #7F75BE",
"*+	c #7E71BB",
"=+	c #8275BD",
"-+	c #DAD6EB",
";+	c #F7F5FA",
">+	c #B1A6D4",
",+	c #7762B4",
"'+	c #775CAF",
")+	c #765BAE",
"!+	c #7452AA",
"~+	c #724FA8",
"{+	c #724DA7",
"]+	c #6A449B",
"^+	c #442063",
"/+	c #592A83",
"(+	c #7F76BE",
"_+	c #7E72BC",
":+	c #7D6EB9",
"<+	c #7767B5",
"[+	c #9B8EC8",
"}+	c #EBE8F4",
"|+	c #AFA2D2",
"1+	c #806BB7",
"2+	c #765DB0",
"3+	c #7557AC",
"4+	c #7453AA",
"5+	c #7352A9",
"6+	c #7350A8",
"7+	c #724EA7",
"8+	c #714CA6",
"9+	c #714BA5",
"0+	c #7049A4",
"a+	c #472367",
"b+	c #5B2C85",
"c+	c #7D70BB",
"d+	c #8875BC",
"e+	c #E2DEEF",
"f+	c #BFB2DA",
"g+	c #795FB1",
"h+	c #7352AA",
"i+	c #714AA5",
"j+	c #7249A5",
"k+	c #7347A6",
"l+	c #492369",
"m+	c #5B2D85",
"n+	c #7F77BE",
"o+	c #7C6EB9",
"p+	c #7967B5",
"q+	c #8573BC",
"r+	c #C6BEE0",
"s+	c #F0EEF7",
"t+	c #F6F5FA",
"u+	c #F8F7FB",
"v+	c #FDFDFE",
"w+	c #BFB2D9",
"x+	c #7252AA",
"y+	c #724FA7",
"z+	c #724DA6",
"A+	c #7149A5",
"B+	c #7349A6",
"C+	c #7548A7",
"D+	c #7646A8",
"E+	c #5A2D84",
"F+	c #7D71BB",
"G+	c #7563B4",
"H+	c #ACA1D2",
"I+	c #DDD6EB",
"J+	c #AE9CCF",
"K+	c #9079BD",
"L+	c #7A5DAF",
"M+	c #7150A9",
"N+	c #7149A6",
"O+	c #7348A6",
"P+	c #7647A8",
"Q+	c #7846AA",
"R+	c #7944AA",
"S+	c #482368",
"T+	c #592B82",
"U+	c #7E72BB",
"V+	c #8272BB",
"W+	c #E1DDEF",
"X+	c #D7CFE8",
"Y+	c #A492CA",
"Z+	c #7559AE",
"`+	c #7053AA",
" @	c #7456AC",
".@	c #7351A8",
"+@	c #734FA8",
"@@	c #7448A7",
"#@	c #7747A9",
"$@	c #7A44AC",
"%@	c #7B43AC",
"&@	c #482266",
"*@	c #56297E",
"=@	c #7D6CB7",
"-@	c #EDEAF5",
";@	c #846DB8",
">@	c #7459AD",
",@	c #7455AC",
"'@	c #7348A7",
")@	c #7746A9",
"!@	c #7945AB",
"~@	c #7B44AC",
"{@	c #7D43AE",
"]@	c #7E41AD",
"^@	c #442062",
"/@	c #512576",
"(@	c #7662AF",
"_@	c #7A69B7",
":@	c #9A8CC7",
"<@	c #E8E4F2",
"[@	c #7256AD",
"}@	c #7A45AB",
"|@	c #7C44AD",
"1@	c #7E42AF",
"2@	c #8242B0",
"3@	c #773BA2",
"4@	c #3F1F5C",
"5@	c #634192",
"6@	c #9887C5",
"7@	c #917CBF",
"8@	c #724EA6",
"9@	c #7547A8",
"0@	c #7647A9",
"a@	c #7F42AE",
"b@	c #8141B0",
"c@	c #8540B4",
"d@	c #5B2B7E",
"e@	c #532679",
"f@	c #7964B5",
"g@	c #F2F0F8",
"h@	c #E2DCEE",
"i@	c #876DB8",
"j@	c #6D4DA8",
"k@	c #7251AA",
"l@	c #7353AA",
"m@	c #7C44AC",
"n@	c #8041B0",
"o@	c #8241B1",
"p@	c #8440B2",
"q@	c #853EB2",
"r@	c #42205E",
"s@	c #522677",
"t@	c #7158A7",
"u@	c #765DB1",
"v@	c #EAE5F2",
"w@	c #C3B5DA",
"x@	c #A994CA",
"y@	c #9D85C3",
"z@	c #977CBE",
"A@	c #9376BB",
"B@	c #9173B9",
"C@	c #9070B8",
"D@	c #8F6CB8",
"E@	c #8D66B7",
"F@	c #8659B2",
"G@	c #7740A9",
"H@	c #7A40AC",
"I@	c #8141AF",
"J@	c #8341B1",
"K@	c #853FB3",
"L@	c #873EB4",
"M@	c #7836A1",
"N@	c #411E5D",
"O@	c #582F7F",
"P@	c #7A64B5",
"Q@	c #7860B3",
"R@	c #7459AE",
"S@	c #856CB7",
"T@	c #DFD8EC",
"U@	c #BD9DD6",
"V@	c #7F3DAF",
"W@	c #8340B2",
"X@	c #863FB3",
"Y@	c #883EB5",
"Z@	c #8C3DBA",
"`@	c #4C236B",
" #	c #4F2473",
".#	c #8467B4",
"+#	c #C4B5DB",
"@#	c #F4F1F8",
"##	c #F6F4F9",
"$#	c #EEE7F4",
"%#	c #F5F1F9",
"&#	c #DECCEA",
"*#	c #8038AF",
"=#	c #863EB4",
"-#	c #893DB6",
";#	c #8B3CB7",
">#	c #6F3096",
",#	c #3E1E5A",
"'#	c #502575",
")#	c #755BAE",
"!#	c #7559AD",
"~#	c #714DA7",
"{#	c #6F4AA5",
"]#	c #714DA5",
"^#	c #734DA6",
"/#	c #7147A5",
"(#	c #6B3BA1",
"_#	c #8156B0",
":#	c #C3ACD9",
"<#	c #EFE8F5",
"[#	c #EDE3F3",
"}#	c #A16DC4",
"|#	c #8640B4",
"1#	c #8C3CB8",
"2#	c #8B3AB7",
"3#	c #411F5E",
"4#	c #552C7A",
"5#	c #775AB0",
"6#	c #7251A9",
"7#	c #6D46A3",
"8#	c #6A42A1",
"9#	c #8968B5",
"0#	c #B29CCF",
"a#	c #D8CCE7",
"b#	c #FBF9FC",
"c#	c #EEE6F4",
"d#	c #CAB3DE",
"e#	c #AC82CB",
"f#	c #8F55B9",
"g#	c #7F37AF",
"h#	c #853EB3",
"i#	c #8A3CB7",
"j#	c #8C3BB8",
"k#	c #913BBD",
"l#	c #4B2369",
"m#	c #472268",
"n#	c #542D7B",
"o#	c #8A6BB6",
"p#	c #B49FCF",
"q#	c #DACEE7",
"r#	c #D6C8E5",
"s#	c #BEA7D6",
"t#	c #A685C7",
"u#	c #8F62B9",
"v#	c #763BA8",
"w#	c #7739AA",
"x#	c #7F3EAF",
"y#	c #8340B1",
"z#	c #873FB4",
"A#	c #883DB6",
"B#	c #8D3BB9",
"C#	c #8E39BA",
"D#	c #4F246E",
"E#	c #3B1D56",
"F#	c #482369",
"G#	c #4F2873",
"H#	c #714EA5",
"I#	c #6F48A4",
"J#	c #7447A7",
"K#	c #7946AA",
"L#	c #7D44AE",
"M#	c #883EB4",
"N#	c #8B3CB8",
"O#	c #8E3AB9",
"P#	c #8B38B5",
"Q#	c #482165",
"R#	c #3C1E58",
"S#	c #4B236C",
"T#	c #653E93",
"U#	c #714BA6",
"V#	c #7548A8",
"W#	c #7D43AD",
"X#	c #8042AF",
"Y#	c #903BBB",
"Z#	c #75319C",
"`#	c #411F5D",
" $	c #472266",
".$	c #673D94",
"+$	c #7948AC",
"@$	c #7946AB",
"#$	c #7A45AC",
"$$	c #7C43AD",
"%$	c #8142B0",
"&$	c #873EB5",
"*$	c #913CBE",
"=$	c #79329F",
"-$	c #4D236C",
";$	c #3D1E59",
">$	c #432062",
",$	c #4C256E",
"'$	c #5C3082",
")$	c #6B3996",
"!$	c #783EA6",
"~$	c #8341B2",
"{$	c #8842B7",
"]$	c #8A41B9",
"^$	c #893EB6",
"/$	c #8139AC",
"($	c #73339B",
"_$	c #612B83",
":$	c #492267",
"<$	c #421F60",
"[$	c #401F5E",
"}$	c #401E5C",
"|$	c #3F1E5C",
"1$	c #3D1E58",
"2$	c #3E1E59",
"                                                                        ",
"                            . + @ # $ % & *                             ",
"                      = - ; > , ' ) ! ~ { ] ^ / (                       ",
"                  _ : < [ } ) ) , ! ~ { | 1 2 3 4 5 6                   ",
"                7 8 9 ) ) ) ) [ ! 0 a 1 b c d e f g h i                 ",
"            j k l ) ) ) ) ) ! m l n o p q r s t u v w x y z             ",
"          A B ) ) ) ) ) ' m ~ C D E F G G G G H I J K L M N O           ",
"          P ) ) ) ) ) , m 0 a Q R S T U V G G G W X M Y Z `  .          ",
"        ..m ) ) ) ) ! ~ +.@.2 #.$.%.&.*.=.-.G G ;.Y >.,.'.).!.~.        ",
"      {.].) ) ) ' m ^./.(._.:.<.[.}.|.G G G G G 1.,.2.3.4.5.6.7.8.      ",
"      9.0.) ) , m a.G G G G G G G G G G b.c.d.e.,.` f.5.6.g.h.i.j.      ",
"    k.l.) ) ! ~ n m.G G G G n.o.p.q.r.s.t.u.v.'.'.w.x.6.g.y.z.A.B.C.    ",
"    D.[ ' m 0 a n E.G G G G F.G.w H.K I.J.,.K.3.4.L.g.h.M.N.A.O.P.Q.    ",
"    R.) m l @.2 S.T.U.G G G V.W.X.Y.M J.,.Z.f.5.L.g.y.M.N.`. +.+++@+    ",
"  #+$+~ { | %+S.&+e *+=+-+G G ;+>+M ,+` '.w.5.'+)+y.z.A.O.!+.+~+{+]+^+  ",
"  /+a a 1 b (+d _+*+u :+<+[+}+G G G |+1+2+L.g.y.M.3+A.4+5+6+7+8+9+0+a+  ",
"  b+2 2 c (+d _+c+u v J X.K I.d+e+G G G f+g+y.M.N.`.h+.+~+7+8+i+j+k+l+  ",
"  m+n+(+&+e *+u o+I p+q+r+s+t+u+u+v+G G G G w+x+4+5+.+y+z+9+A+B+C+D+l+  ",
"  E+3 3 _+F+u :+G+H+}+G G G G G G G I+J+K+L+M+4+.+~+7+8+9+N+O+P+Q+R+S+  ",
"  T+U+_+c+:+w V+W+G G G G G G X+Y+Z+`+ @N.`.h+.@+@7+8+i+B+@@#@Q+$@%@&@  ",
"  *@u u :+I =@u+G G G G G -@;@>@h.M.N.,@O.5+6+~+z+9+i+'@C+)@!@~@{@]@^@  ",
"  /@(@o+J _@:@G G G G G <@[@g.y.M.N.A.4+.+~+{+8+9+j+@@P+Q+}@|@1@2@3@4@  ",
"    5@w X.I.6@G G G G G 7@g.y.3+A.`.h+6+y+8@8+i+B+9@0@Q+~@{@a@b@c@d@    ",
"    e@I.I.J.f@g@G G G G h@i@j@k@l@5+6+7+8+9+i+@@9@)@!@m@{@n@o@p@q@r@    ",
"    s@t@J.,.` u@X+G G G G G v@w@x@y@z@A@B@C@D@E@F@G@H@1@I@J@K@L@M@N@    ",
"      O@P@Q@w.x.R@S@T@;+G G G G G G G G G G G G G G U@V@W@X@Y@Z@`@      ",
"       #R.4.L.g.y.M.N.N..#+#@#G G G G ##$#%#G G G G &#*#=#-#;#>#,#      ",
"        '#)#h.!#M.N.`.5+6+~#{#]#^#/#(#_#:#<#G G [#}#|#L@-#1#2#3#        ",
"          4#5#z.A.4+5+6#~#7#8#9#0#a#b#G c#d#e#f#g#h#Y@i#j#k#l#          ",
"          m#n#`.4+.++@{+o#p#q#r#s#t#u#v#w#x#y#K@z#A#;#B#C#D#E#          ",
"            F#G#H#~+7+8+I#/#J#0@K#~@L#a@b@p@X@M#-#N#O#P#Q#R#            ",
"                S#T#U#A+@@V#)@!@|@W#X#o@p@L@Y@i#j#Y#Z#`#                ",
"                   $G#.$+$@$#$$$1@%$y#K@&$-#1#*$=$-$;$                  ",
"                      >$,$'$)$!$~${$]$^$/$($_$:$E#                      ",
"                            <$[$}$}$|$;$1$2$                            ",
"                                                                        "};
