/* XPM */
static char * C:\Users\hezha\Pictures\html_xpm[] = {
"36 36 152 2",
"  	c None",
". 	c #E44D26",
"+ 	c #E24B25",
"@ 	c #FF6D3A",
"# 	c #FE6B38",
"$ 	c #FF6C39",
"% 	c #E75129",
"& 	c #FF6E3A",
"* 	c #E54E27",
"= 	c #E34B25",
"- 	c #FD6937",
"; 	c #E45029",
"> 	c #E5532D",
", 	c #E3512C",
"' 	c #FF7341",
") 	c #FF713F",
"! 	c #FF7140",
"~ 	c #FF6E3C",
"{ 	c #F86534",
"] 	c #E34C25",
"^ 	c #EF947D",
"/ 	c #FFFFFF",
"( 	c #FFA181",
"_ 	c #F56032",
": 	c #EB7D60",
"< 	c #FF8F69",
"[ 	c #F15C2F",
"} 	c #E44C26",
"| 	c #E86746",
"1 	c #FF7F52",
"2 	c #ED572C",
"3 	c #E5512A",
"4 	c #FF6E3B",
"5 	c #EA542A",
"6 	c #E24117",
"7 	c #F3AD9B",
"8 	c #E5522C",
"9 	c #E95229",
"0 	c #E24319",
"a 	c #FDF3F0",
"b 	c #F5B9AA",
"c 	c #E44B23",
"d 	c #E75128",
"e 	c #E3451C",
"f 	c #FBE0D8",
"g 	c #F7C8BC",
"h 	c #E34921",
"i 	c #E64F28",
"j 	c #E3471E",
"k 	c #F7CCC0",
"l 	c #FADFD8",
"m 	c #EA7253",
"n 	c #EA7759",
"o 	c #E97558",
"p 	c #FF9068",
"q 	c #FF8E67",
"r 	c #FF8257",
"s 	c #FF6B38",
"t 	c #FF6D39",
"u 	c #F4B8A8",
"v 	c #FFC0AB",
"w 	c #FF6935",
"x 	c #F2A490",
"y 	c #FFB094",
"z 	c #FF6B37",
"A 	c #FD6938",
"B 	c #E34C26",
"C 	c #EE9178",
"D 	c #FFA07F",
"E 	c #F86434",
"F 	c #ED866B",
"G 	c #FFFFFE",
"H 	c #FF9672",
"I 	c #F45F31",
"J 	c #E44A22",
"K 	c #E04018",
"L 	c #FF662F",
"M 	c #FF632E",
"N 	c #FF5F27",
"O 	c #FF8D65",
"P 	c #EE592E",
"Q 	c #FF7C4E",
"R 	c #FF8358",
"S 	c #EA542B",
"T 	c #E65B37",
"U 	c #F9DBD3",
"V 	c #F9D5CC",
"W 	c #FADBD3",
"X 	c #E86A49",
"Y 	c #FF794B",
"Z 	c #E54F27",
"` 	c #E5542F",
" .	c #ED8C72",
"..	c #FFA383",
"+.	c #FF703E",
"@.	c #E34821",
"#.	c #F4B8A9",
"$.	c #E75D39",
"%.	c #E34922",
"&.	c #E24923",
"*.	c #FF794A",
"=.	c #FFC4B0",
"-.	c #FF6732",
";.	c #E54E26",
">.	c #E3461D",
",.	c #FEF6F4",
"'.	c #FCEBE7",
").	c #EB8369",
"!.	c #FF9C78",
"~.	c #FFEFE9",
"{.	c #FFF3EF",
"].	c #FF6631",
"^.	c #FE6A38",
"/.	c #E3471F",
"(.	c #FFDED2",
"_.	c #FF6733",
":.	c #FD6A38",
"<.	c #E34820",
"[.	c #F6C6B9",
"}.	c #FFCCBA",
"|.	c #FF6834",
"1.	c #FC6937",
"2.	c #E44B24",
"3.	c #ED856A",
"4.	c #F6C3B5",
"5.	c #FCEBE6",
"6.	c #FFEEE8",
"7.	c #FFCDBB",
"8.	c #FF9A76",
"9.	c #FB6736",
"0.	c #E44C25",
"a.	c #E3461E",
"b.	c #E65833",
"c.	c #F4B09F",
"d.	c #FCEDE9",
"e.	c #FEFBFA",
"f.	c #FFFCFA",
"g.	c #FFF0EB",
"h.	c #FFBEA7",
"i.	c #FF7444",
"j.	c #F76234",
"k.	c #E44E27",
"l.	c #E34F2A",
"m.	c #FF723F",
"n.	c #F35D30",
"o.	c #F66133",
"p.	c #E75028",
"q.	c #F35E30",
"r.	c #EB542B",
"s.	c #FF6F3B",
"t.	c #FA6635",
"u.	c #EB552B",
"    . . . . . . . . . . . . . . . . . . . . . . . . . . . . . . . .     ",
"    . . . . . . . . . . . . . . . . . . . . . . . . . . . . . . . .     ",
"    . . . . . . . . . . . . . . . + @ # # # # # # # # # # # $ % . .     ",
"      . . . . . . . . . . . . . . + & $ $ $ $ $ $ $ $ $ $ $ & * .       ",
"      . . . . . . . . . . . . . . + & $ $ $ $ $ $ $ $ $ $ $ & = .       ",
"      . . . . . . . . . . . . . . + & $ $ $ $ $ $ $ $ $ $ $ - = .       ",
"      . . . . . ; > > > > > > > > , ' ) ) ) ) ) ) ) ! ~ $ $ { ] .       ",
"      . . . . . ^ / / / / / / / / / / / / / / / / / / ( $ $ _ ] .       ",
"      . . . . . : / / / / / / / / / / / / / / / / / / < $ $ [ } .       ",
"      . . . . . | / / / / / / / / / / / / / / / / / / 1 $ $ 2 . .       ",
"      . . . . . 3 / / / / / / / / / / / / / / / / / / 4 $ $ 5 . .       ",
"      . . . . . 6 / / / / 7 8 > > , ' ) ) ) ) ) ) ) ! $ $ $ 9 . .       ",
"      . . . . . 0 a / / / b c . . + & $ $ $ $ $ $ $ $ $ $ $ d . .       ",
"      . . . . . e f / / / g h . . + & $ $ $ $ $ $ $ $ $ $ $ i . .       ",
"        . . . . j k / / / l m n n o p q q q q q q q r s $ t * .         ",
"        . . . . h u / / / / / / / / / / / / / / / / v w $ t . .         ",
"        . . . . c x / / / / / / / / / / / / / / / / y z $ A B .         ",
"        . . . . . C / / / / / / / / / / / / / / / / D $ $ E B .         ",
"        . . . . . F / / / / / / / / / / / / G / / / H $ $ I . .         ",
"        . . . . . J 0 0 0 0 0 0 0 K L M M N / / / / O $ $ P . .         ",
"        . . . . . . . . . . . . . + & $ $ Q / / / / R $ $ S . .         ",
"        . . . . . T U V V W X . . + & $ $ < / / / / Y $ $ Z . .         ",
"        . . . . . ` / / / /  .. . + & $ $ ../ / / / +.$ $ * . .         ",
"        . . . . . @./ / / / #.$.%.&.t w *.=./ / / / -.$ # ;.. .         ",
"        . . . . . >.,./ / / / / '.).!.~./ / / / / {.].$ ^.. . .         ",
"          . . . . /.U / / / / / / / / / / / / / / (._.$ :.. .           ",
"          . . . . <.[./ / / / / / / / / / / / / / }.|.$ 1.. .           ",
"          . . . . . 2.3.4.5./ / / / / / / / 6.7.8.z $ $ 9.. .           ",
"          . . . . . . . 0.a.b.c.d.e.f.g.h.i.].s $ $ $ $ j.. .           ",
"          . . . . . . . . . . . k.l.m.@ $ $ $ $ $ $ $ t n.. .           ",
"          . . . . . . . . . . . . + & $ $ $ $ $ $ @ @ o.p.. .           ",
"          . . . . . . . . . . . . + & $ $ t & 9.q.r.B ] . . .           ",
"          . . . . . . . . . . . . + s.# t.[ Z ] . . . . . . .           ",
"                  . . . . . . . . B u.B . . . . . . .                   ",
"                          . . . . . . . . . .                           ",
"                                . . . .                                 "};
