/* XPM */
static char * C:\Users\hezha\Pictures\org_xpm[] = {
"36 36 288 2",
"  	c None",
". 	c #2C251F",
"+ 	c #29231E",
"@ 	c #8D8275",
"# 	c #665D53",
"$ 	c #52473B",
"% 	c #1D1915",
"& 	c #7E6E5E",
"* 	c #000000",
"= 	c #69635D",
"- 	c #5F5447",
"; 	c #282623",
"> 	c #80705E",
", 	c #4A4036",
"' 	c #526E65",
") 	c #4C4136",
"! 	c #9C8E7F",
"~ 	c #040302",
"{ 	c #5C8579",
"] 	c #0A100D",
"^ 	c #4B655D",
"/ 	c #79A194",
"( 	c #080705",
"_ 	c #BEB9B3",
": 	c #645A4F",
"< 	c #374D45",
"[ 	c #4D716A",
"} 	c #485A50",
"| 	c #713622",
"1 	c #9A4B31",
"2 	c #9A4A30",
"3 	c #89857F",
"4 	c #95887A",
"5 	c #383028",
"6 	c #060200",
"7 	c #658374",
"8 	c #44655F",
"9 	c #3B5652",
"0 	c #754431",
"a 	c #7D4732",
"b 	c #7C503C",
"c 	c #6D402F",
"d 	c #696E61",
"e 	c #55766A",
"f 	c #202E29",
"g 	c #27120C",
"h 	c #94452C",
"i 	c #6B9687",
"j 	c #52786F",
"k 	c #77AA99",
"l 	c #618274",
"m 	c #699687",
"n 	c #77AE9D",
"o 	c #71A696",
"p 	c #78AE9D",
"q 	c #79AC9B",
"r 	c #7DB3A1",
"s 	c #587D71",
"t 	c #1A0C08",
"u 	c #2B150E",
"v 	c #6F3827",
"w 	c #AA573C",
"x 	c #A24B30",
"y 	c #6F9D8D",
"z 	c #73A494",
"A 	c #77AB9A",
"B 	c #78AC9B",
"C 	c #5F8A7D",
"D 	c #5F897E",
"E 	c #628E81",
"F 	c #70A091",
"G 	c #78AB9A",
"H 	c #70A090",
"I 	c #2E423B",
"J 	c #121A18",
"K 	c #141D1A",
"L 	c #151E1B",
"M 	c #131B18",
"N 	c #26120B",
"O 	c #995038",
"P 	c #A75F48",
"Q 	c #AC6751",
"R 	c #B26D57",
"S 	c #A4553B",
"T 	c #A04D32",
"U 	c #A24D31",
"V 	c #758E7D",
"W 	c #6D9E8F",
"X 	c #6A988B",
"Y 	c #77AB99",
"Z 	c #76A998",
"` 	c #6C9A8B",
" .	c #75A797",
"..	c #79AD9C",
"+.	c #623020",
"@.	c #AF6750",
"#.	c #B26E58",
"$.	c #B16D58",
"%.	c #B16D57",
"&.	c #A75A41",
"*.	c #A04C31",
"=.	c #795F4C",
"-.	c #79B09F",
";.	c #74A695",
">.	c #5A8178",
",.	c #3D574E",
"'.	c #572C1F",
").	c #B36E57",
"!.	c #A35339",
"~.	c #A0472C",
"{.	c #6E8777",
"].	c #7AAE9D",
"^.	c #74A594",
"/.	c #263631",
"(.	c #4D2417",
"_.	c #B56E57",
":.	c #B06C56",
"<.	c #A25036",
"[.	c #9E4D32",
"}.	c #944B32",
"|.	c #6A3C2A",
"1.	c #76AB9A",
"2.	c #618D80",
"3.	c #4B6E67",
"4.	c #6A988A",
"5.	c #699789",
"6.	c #040707",
"7.	c #A45C45",
"8.	c #B26E59",
"9.	c #A5553B",
"0.	c #A14E32",
"a.	c #9A4F35",
"b.	c #6F9282",
"c.	c #706654",
"d.	c #645B4B",
"e.	c #696353",
"f.	c #72A494",
"g.	c #689485",
"h.	c #79AD9B",
"i.	c #689688",
"j.	c #3E5C57",
"k.	c #577F75",
"l.	c #111A17",
"m.	c #67301E",
"n.	c #AE674F",
"o.	c #AE6951",
"p.	c #884933",
"q.	c #874E38",
"r.	c #77A896",
"s.	c #5F6F61",
"t.	c #6E9D8D",
"u.	c #5E7D70",
"v.	c #5B8375",
"w.	c #628B7D",
"x.	c #638D7F",
"y.	c #6D9B8C",
"z.	c #679485",
"A.	c #2C3F39",
"B.	c #324840",
"C.	c #2D413B",
"D.	c #293B35",
"E.	c #324841",
"F.	c #3F5A51",
"G.	c #99523A",
"H.	c #B16E58",
"I.	c #B06A53",
"J.	c #A6583E",
"K.	c #A24F34",
"L.	c #A14D32",
"M.	c #91472F",
"N.	c #5A7A6D",
"O.	c #73A291",
"P.	c #78AD9C",
"Q.	c #6B9889",
"R.	c #587E71",
"S.	c #5C8375",
"T.	c #3B544C",
"U.	c #577C6F",
"V.	c #5B8174",
"W.	c #527469",
"X.	c #A05C46",
"Y.	c #AC634C",
"Z.	c #9F4C31",
"`.	c #9D4C31",
" +	c #82614C",
".+	c #587F71",
"++	c #5F897A",
"@+	c #9F5D48",
"#+	c #B06C55",
"$+	c #A95E45",
"%+	c #AD664F",
"&+	c #6E6A58",
"*+	c #864C36",
"=+	c #678071",
"-+	c #76A897",
";+	c #577D70",
">+	c #3F5B52",
",+	c #9A553F",
"'+	c #B06B55",
")+	c #A95D45",
"!+	c #A25035",
"~+	c #89442C",
"{+	c #7B5742",
"]+	c #628B7E",
"^+	c #736654",
"/+	c #6B9283",
"(+	c #395149",
"_+	c #88442E",
":+	c #A6573E",
"<+	c #A14F35",
"[+	c #93472E",
"}+	c #915138",
"|+	c #748775",
"1+	c #78AF9E",
"2+	c #638E80",
"3+	c #5B8476",
"4+	c #587D70",
"5+	c #436157",
"6+	c #431F14",
"7+	c #A8563B",
"8+	c #A54C30",
"9+	c #5A5E51",
"0+	c #6A9586",
"a+	c #735F4D",
"b+	c #6B6F5E",
"c+	c #608A7C",
"d+	c #283832",
"e+	c #974930",
"f+	c #A04D31",
"g+	c #A54E32",
"h+	c #7A4935",
"i+	c #746957",
"j+	c #6E9A8A",
"k+	c #75A796",
"l+	c #5C8476",
"m+	c #507367",
"n+	c #592B1C",
"o+	c #A64F33",
"p+	c #615142",
"q+	c #6B5140",
"r+	c #7B705C",
"s+	c #745744",
"t+	c #76A898",
"u+	c #5A8174",
"v+	c #598073",
"w+	c #5B8275",
"x+	c #1D2925",
"y+	c #743723",
"z+	c #726554",
"A+	c #77B3A2",
"B+	c #6C5442",
"C+	c #74A696",
"D+	c #5E8375",
"E+	c #73A594",
"F+	c #577C70",
"G+	c #18231F",
"H+	c #26150E",
"I+	c #71A191",
"J+	c #75A494",
"K+	c #6F9E8E",
"L+	c #75A897",
"M+	c #5E8679",
"N+	c #0F1512",
"O+	c #7CB19F",
"P+	c #49685E",
"Q+	c #7BB09F",
"R+	c #7AAF9D",
"S+	c #7BAF9E",
"T+	c #53766B",
"U+	c #22302B",
"V+	c #70A191",
"W+	c #6D9C8C",
"X+	c #49685D",
"Y+	c #1B2723",
"Z+	c #1A2622",
"`+	c #283A34",
" @	c #4A6A5F",
".@	c #60887B",
"+@	c #598072",
"@@	c #5B8274",
"#@	c #425E54",
"$@	c #17221F",
"%@	c #131A18",
"&@	c #649081",
"*@	c #618A7C",
"=@	c #1F2D29",
"-@	c #54786C",
";@	c #4E6F64",
"                                                                        ",
"                                                . +                     ",
"                                                @                       ",
"                                              # $                       ",
"                                            % & *                       ",
"                                            = -                         ",
"                                          ; > ,                         ",
"                                      '   ) ! ~                         ",
"                              { ]   ^ / ( _ :                           ",
"                            < [ } | 1 2 3 4 5                           ",
"                          6 7 8 9 0 a b c d e f                         ",
"                        g h i j k l m n o p q r s                       ",
"                  t u v w x y z A k B C D E F k G H I J K L     M       ",
"            N O P Q R S T U V k k k k k W X k k k k Y Z Z `  .z ..      ",
"          +.@.#.$.%.&.*.T T =.-.k k k k k k k k k k k k ;.>.k k k ,.    ",
"        '.).%.%.%.%.!.T T T ~.{.k k k k k k k k k k k k G ].k A ^./.    ",
"      (._.%.%.%.:.*.<.T T [.}.|.1. .k k k k k k k k k k 2.3.4.5.6.      ",
"    * 7.%.%.%.8.9.T T 0.a.b.c.d.e.f.g.h.k k k k ]...].].k i.j.k.l.      ",
"    m.).%.%.%.n.o.T T p.q.r.s.t.u.v.m w.x.m y.z.A.B.C.D.E.F.F.C.        ",
"    G.H.%.%.I.J.K.!.L.M.N.O.P.G Q.R.S.T.U.V.W.                          ",
"    X.$.%.Y.Y.Z.T T `. +P.k k B .+R.++                                  ",
"    @+%.#+$+%+T T 0.&+*+=+k k -+;+;+>+                                  ",
"    ,+'+)+Z.*.!+L.~+{+]+^+/+A Z U.;+(+                                  ",
"    _+:+<+T T L.[+}+|+1+B 2+G B 3+4+5+                                  ",
"    6+7+T T T 8+9+0+a+b+G k k k H R.c+d+                                ",
"      e+T f+g+h+i+j+P.y k+k k k k l+;+l+m+                              ",
"      n+o+p+q+r+s+G k k k k k k k t+u+R.v+w+x+                          ",
"        y+z+A+B+C+D+G k k k k k k k E+R.R.F+g.G+                        ",
"          H+I+J+K+L+k k k k k k k k k K+R.R.R.M+N+                      ",
"            5+O+Y k k k k k k k k k k A l+R.R.R.x.M                     ",
"              P+Q+k k k k k k k h.R+R+S+ .v.;+R.;+T+                    ",
"                U+V+k+k A Z z W+X+D.Y+Z+`+ @` .@+@@@#@                  ",
"                    M L $@J                   %@,.&@*@*                 ",
"                                                  =@-@T+                ",
"                                                      ;@                ",
"                                                        *               "};
